<svg width="33" height="57" viewBox="0 0 33 57" fill="none" xmlns="http://www.w3.org/2000/svg">
<path d="M29.2424 27.8284L3.5354 53.5354L2.82837 52.8284L27.8284 27.8284L3.5354 3.5354L4.24243 2.82837L29.2424 27.8284Z" fill="white"/>
<path d="M29.2424 27.8284L30.6566 29.2426L32.0709 27.8284L30.6566 26.4142L29.2424 27.8284ZM3.5354 53.5354L2.12119 54.9496L3.5354 56.3638L4.94961 54.9496L3.5354 53.5354ZM2.82837 52.8284L1.41416 51.4142L-5.79357e-05 52.8284L1.41416 54.2426L2.82837 52.8284ZM27.8284 27.8284L29.2426 29.2426L30.6568 27.8284L29.2426 26.4142L27.8284 27.8284ZM3.5354 3.5354L2.12119 2.12119L0.706973 3.5354L2.12119 4.94961L3.5354 3.5354ZM4.24243 2.82837L5.65665 1.41416L4.24243 -5.79357e-05L2.82822 1.41416L4.24243 2.82837ZM29.2424 27.8284L27.8282 26.4142L2.12119 52.1212L3.5354 53.5354L4.94961 54.9496L30.6566 29.2426L29.2424 27.8284ZM3.5354 53.5354L4.94961 52.1212L4.24258 51.4142L2.82837 52.8284L1.41416 54.2426L2.12119 54.9496L3.5354 53.5354ZM2.82837 52.8284L4.24258 54.2426L29.2426 29.2426L27.8284 27.8284L26.4142 26.4142L1.41416 51.4142L2.82837 52.8284ZM27.8284 27.8284L29.2426 26.4142L4.94961 2.12119L3.5354 3.5354L2.12119 4.94961L26.4142 29.2426L27.8284 27.8284ZM3.5354 3.5354L4.94961 4.94961L5.65665 4.24258L4.24243 2.82837L2.82822 1.41416L2.12119 2.12119L3.5354 3.5354ZM4.24243 2.82837L2.82822 4.24258L27.8282 29.2426L29.2424 27.8284L30.6566 26.4142L5.65665 1.41416L4.24243 2.82837Z" fill="white"/>
</svg>
