<svg width="33" height="57" viewBox="0 0 33 57" fill="none" xmlns="http://www.w3.org/2000/svg">
<path d="M2.82843 28.5354L28.5355 2.82837L29.2425 3.5354L4.24249 28.5354L28.5355 52.8284L27.8284 53.5354L2.82843 28.5354Z" fill="white"/>
<path d="M2.82843 28.5354L1.41422 27.1212L6.00027e-06 28.5354L1.41422 29.9496L2.82843 28.5354ZM28.5355 2.82837L29.9497 1.41415L28.5355 -5.72823e-05L27.1213 1.41415L28.5355 2.82837ZM29.2425 3.5354L30.6567 4.94962L32.0709 3.5354L30.6567 2.12119L29.2425 3.5354ZM4.24249 28.5354L2.82828 27.1212L1.41407 28.5354L2.82828 29.9496L4.24249 28.5354ZM28.5355 52.8284L29.9497 54.2426L31.3639 52.8284L29.9497 51.4142L28.5355 52.8284ZM27.8284 53.5354L26.4142 54.9496L27.8284 56.3638L29.2426 54.9496L27.8284 53.5354ZM2.82843 28.5354L4.24265 29.9496L29.9497 4.24258L28.5355 2.82837L27.1213 1.41415L1.41422 27.1212L2.82843 28.5354ZM28.5355 2.82837L27.1213 4.24258L27.8283 4.94962L29.2425 3.5354L30.6567 2.12119L29.9497 1.41415L28.5355 2.82837ZM29.2425 3.5354L27.8283 2.12119L2.82828 27.1212L4.24249 28.5354L5.65671 29.9496L30.6567 4.94962L29.2425 3.5354ZM4.24249 28.5354L2.82828 29.9496L27.1212 54.2426L28.5355 52.8284L29.9497 51.4142L5.65671 27.1212L4.24249 28.5354ZM28.5355 52.8284L27.1212 51.4142L26.4142 52.1212L27.8284 53.5354L29.2426 54.9496L29.9497 54.2426L28.5355 52.8284ZM27.8284 53.5354L29.2426 52.1212L4.24265 27.1212L2.82843 28.5354L1.41422 29.9496L26.4142 54.9496L27.8284 53.5354Z" fill="white"/>
</svg>
