<svg width="50" height="50" viewBox="0 0 50 50" fill="none" xmlns="http://www.w3.org/2000/svg">
<path d="M24.4385 0.280884C24.064 3.37069 24.8315 9.32585 30.8984 8.42737C29.2138 12.9212 35.6737 15.4492 37.3594 13.7643C39.8313 18.0456 43.2586 16.4843 44.6631 15.1686C44.7563 16.0999 45.6638 17.6779 48.5479 16.5895C49.4867 19.2178 50 22.0487 50 24.9996C50 38.8068 38.8071 49.9996 25 49.9996C11.1929 49.9996 0 38.8068 0 24.9996C0.000206101 11.3379 10.9589 0.237428 24.5654 0.00549316C24.5233 0.0963804 24.4794 0.187446 24.4385 0.280884ZM27.8086 37.9215C26.4125 37.9217 25.2812 39.0537 25.2812 40.4498C25.2815 41.8457 26.4127 42.977 27.8086 42.9772C29.2047 42.9772 30.3367 41.8459 30.3369 40.4498C30.3369 39.0536 29.2048 37.9215 27.8086 37.9215ZM15.4492 38.7643C14.6736 38.7644 14.0449 39.393 14.0449 40.1686C14.0449 40.9442 14.6736 41.5728 15.4492 41.5729C16.2249 41.5729 16.8535 40.9443 16.8535 40.1686C16.8535 39.3929 16.2249 38.7643 15.4492 38.7643ZM11.2363 25.2809C8.75423 25.2809 6.74135 27.293 6.74121 29.775C6.74121 32.2572 8.75415 34.2692 11.2363 34.2692C13.7183 34.269 15.7305 32.2571 15.7305 29.775C15.7303 27.2931 13.7183 25.2811 11.2363 25.2809ZM41.292 31.4606C40.5165 31.4606 39.8878 32.0894 39.8877 32.8649C39.8877 33.6405 40.5164 34.2691 41.292 34.2692C42.0677 34.2692 42.6963 33.6405 42.6963 32.8649C42.6962 32.0893 42.0676 31.4606 41.292 31.4606ZM26.124 30.899C25.3484 30.899 24.7188 31.5277 24.7188 32.3033C24.7188 33.079 25.3483 33.7076 26.124 33.7076C26.8995 33.7074 27.5283 33.0789 27.5283 32.3033C27.5283 31.5278 26.8995 30.8993 26.124 30.899ZM31.4609 21.9098C30.5302 21.9098 29.7755 22.6646 29.7754 23.5953C29.7754 24.5262 30.5301 25.2809 31.4609 25.2809C32.3916 25.2807 33.1465 24.5261 33.1465 23.5953C33.1464 22.6647 32.3916 21.9099 31.4609 21.9098ZM20.2246 19.3824C18.8285 19.3825 17.6964 20.5137 17.6963 21.9098C17.6963 23.306 18.8284 24.4381 20.2246 24.4381C21.6208 24.4381 22.7529 23.306 22.7529 21.9098C22.7528 20.5137 21.6207 19.3824 20.2246 19.3824ZM44.1016 21.3483C43.326 21.3483 42.6964 21.977 42.6963 22.7526C42.6963 23.5282 43.3259 24.1569 44.1016 24.1569C44.877 24.1566 45.5059 23.5281 45.5059 22.7526C45.5057 21.9771 44.877 21.3485 44.1016 21.3483ZM8.70801 17.4156C7.93243 17.4156 7.30388 18.0444 7.30371 18.8199C7.30371 19.5956 7.93233 20.2252 8.70801 20.2252C9.48363 20.2251 10.1123 19.5956 10.1123 18.8199C10.1121 18.0445 9.48352 17.4157 8.70801 17.4156ZM17.9775 9.55042C16.7365 9.55042 15.7306 10.5565 15.7305 11.7975C15.7305 13.0386 16.7365 14.0446 17.9775 14.0446C19.2186 14.0446 20.2246 13.0386 20.2246 11.7975C20.2245 10.5565 19.2185 9.55042 17.9775 9.55042Z" fill="black"/>
<circle cx="33.427" cy="4.77525" r="1.96629" fill="black"/>
<circle cx="41.2921" cy="1.96629" r="1.96629" fill="black"/>
<circle cx="44.6629" cy="11.5168" r="1.96629" fill="black"/>
</svg>
