<svg width="96" height="96" viewBox="0 0 96 96" fill="none" xmlns="http://www.w3.org/2000/svg">
<path d="M48 0C21.5335 0 0 21.5335 0 48C0 74.4665 21.5335 96 48 96C74.4665 96 96 74.4665 96 48C96 21.5335 74.4665 0 48 0ZM35.6899 14.7692H60.3029C71.8413 14.7692 81.2308 24.1551 81.2308 35.6899V60.3029C81.2308 71.8413 71.8449 81.2308 60.3101 81.2308H35.6971C24.1587 81.2308 14.7692 71.8449 14.7692 60.3101V35.6971C14.7692 24.1587 24.1551 14.7692 35.6899 14.7692ZM35.6899 22.1538C28.2277 22.1538 22.1538 28.2313 22.1538 35.6971V60.3101C22.1538 67.7722 28.2313 73.8462 35.6971 73.8462H60.3101C67.7722 73.8462 73.8462 67.7687 73.8462 60.3029V35.6899C73.8462 28.2277 67.7687 22.1538 60.3029 22.1538H35.6899ZM65.2356 28.3053C66.5943 28.3053 67.6947 29.4057 67.6947 30.7644C67.6947 32.1232 66.5943 33.2308 65.2356 33.2308C63.8768 33.2308 62.7692 32.1232 62.7692 30.7644C62.7692 29.4057 63.8768 28.3053 65.2356 28.3053ZM48 29.5385C58.1797 29.5385 66.4615 37.8203 66.4615 48C66.4615 58.1797 58.1797 66.4615 48 66.4615C37.8203 66.4615 29.5385 58.1797 29.5385 48C29.5385 37.8203 37.8203 29.5385 48 29.5385ZM48 36.9231C45.0622 36.9231 42.2448 38.0901 40.1674 40.1674C38.0901 42.2448 36.9231 45.0622 36.9231 48C36.9231 50.9378 38.0901 53.7552 40.1674 55.8326C42.2448 57.9099 45.0622 59.0769 48 59.0769C50.9378 59.0769 53.7552 57.9099 55.8326 55.8326C57.9099 53.7552 59.0769 50.9378 59.0769 48C59.0769 45.0622 57.9099 42.2448 55.8326 40.1674C53.7552 38.0901 50.9378 36.9231 48 36.9231Z" fill="white"/>
</svg>
