<svg width="121" height="118" viewBox="0 0 121 118" fill="none" xmlns="http://www.w3.org/2000/svg">
<path d="M16.5 0.500134C19.5 -0.999751 24 4.50012 26.5 7.00013L33.04 13.5402C37.2617 11.7319 41.2392 10.5863 44.5 10.0001V30.5001C36.3334 31.8335 20.0001 39.8003 20 61.0001C20 81.5258 39.0604 89.0212 49.5 90.3849V49.5001L70.5 57.0001C70.8333 73.0001 70.5 105.4 70.5 111C70.5 118 65 118 59.5 118C54 118 49.5 117 49.5 111V110.908C32.3709 109.206 0 97.4082 0 62.5001C3.39449e-05 49.2395 4.11627 38.9435 10.0488 31.1056L13 7.50013C13.1667 5.66674 14.1001 1.7001 16.5 0.500134Z" fill="#480066"/>
<path d="M91.5 6.75499C94 4.25495 98.5001 -1.24478 101.5 0.254985C103.9 1.45492 104.833 5.42152 105 7.25499L107.373 26.2394C115.018 33.6847 120.5 44.1356 120.5 58.5001C120.5 94.1001 90.8333 108.333 76 111V90.5001C84.1667 89.1668 100.5 81.2001 100.5 60.0001C100.5 38.8002 80.1666 31.5001 70 30.5001V49.2325L49.5 43.0001V10.0001H70C74.2325 10.3353 79.5288 11.3186 85.0869 13.1671L91.5 6.75499Z" fill="#FF7E42"/>
<ellipse cx="7.43553" cy="3.91615" rx="7.43553" ry="3.91615" transform="matrix(-0.823024 0.568007 0.568007 0.823024 86.2393 48)" fill="#FF7E42"/>
<ellipse cx="37.3439" cy="55.4465" rx="7.43553" ry="3.91615" transform="rotate(34.6114 37.3439 55.4465)" fill="#480066"/>
</svg>
