<?xml version="1.0" encoding="UTF-8"?>
<svg xmlns="http://www.w3.org/2000/svg" version="1.1" viewBox="0 0 2000 2000">
  <!-- Generator: Adobe Illustrator 29.0.1, SVG Export Plug-In . SVG Version: 2.1.0 Build 192)  -->
  <defs>
    <style>
      .st0 {
        fill: #ee7b46;
      }

      .st1 {
        display: none;
      }

      .st2 {
        fill: #422461;
      }
    </style>
  </defs>
  <g id="_Слой_8" data-name="Слой_8" class="st1">
    <g>
      <path class="st2" d="M748.17,199.66v335.89l-3.41,2.57c-290.66,54.44-471.47,348.35-390.72,634.76,60.54,214.73,260.83,373.79,484.71,373.16l335.75-2.92.25,328.59c-95.38,0-186.94,2.54-336.97,2.54-167.63-1.32-331.65-51.49-469.8-145.19C-31.91,1457.84-120.8,902.02,175.12,518.67c163.93-208.74,393.09-281.43,393.09-281.43,34.59-9.07,68.67-19.97,103.84-27,25.05-5.01,50.58-9.39,76.13-10.59Z"/>
      <path class="st2" d="M839.87,1539.25v-691.72l334.63,106.92.25,922.66c-2.74,53.65-45.77,104.08-100.57,108.74-35.54,3.02-97.9,2.64-133.72.01-57.28-4.2-100.73-55.31-102.68-111.61,0-111.7,2.09-194.76,2.09-335.01Z"/>
      <path class="st2" d="M173.66,520.14c21.94-137.27,42.74-274.72,64.39-412.04,4.05-25.66,1.98-52.16,20.31-73.38,22.17-25.67,80.53-27.66,107.06-7.48l201.32,211.47c34.59-9.07-174.61,489.59-393.09,281.43Z"/>
      <path class="st0" d="M1174.77,526.59v310.98l-333.98-103.58-2.04-536.44,6.01-1.96c166.74,0,168.69,4.08,329.98,4.08,11.39,0,.03,207.03.03,326.92Z"/>
      <path class="st0" d="M1432.5,237.63c49.31-51.72,108.39-117.98,157.92-169.51,32.27-33.57,42.86-60.18,97.39-55.59,33.71,2.84,54.61,16.67,63.61,50.02l68.11,442.21c-355.73,48.97-390.15-263.87-387.03-267.14Z"/>
      <path class="st0" d="M1262.48,1848.23v-334.9c267.49-47.92,445.95-305.68,400.1-574.53-39.96-234.32-248.68-414.22-487.81-412.22l-333.98.24-2.04-329.29s354.15-18.99,521.05,19.43c310.52,73.87,459.74,287.8,459.74,287.8,154.78,200.2,216.19,454.59,159.96,703.95-77.01,341.47-368.9,600.98-717.02,639.52Z"/>
      <path class="st0" d="M1443.47,929.85c49.37-4.7,66.27,24.47,46.6,68.53-22.08,49.46-91.33,101.11-143.46,113.69-63.72,15.38-92.33-18.31-58.55-76.49,27.51-47.39,100.15-100.47,155.41-105.73Z"/>
      <path class="st2" d="M568.28,929.77c55.77-7.59,135.09,47.92,166.76,91.36,42.59,58.42,28.38,111.11-52.18,90.05-51.75-13.53-123.76-67.08-142.98-118.16-10.93-29.06-6.76-58.47,28.4-63.25Z"/>
    </g>
  </g>
  <g id="_Слой_9" data-name="Слой_9">
    <g>
      <rect y="463.83" width="1999.13" height="125.62"/>
      <rect x="663.3" y="926.47" width="1335.83" height="125.62"/>
      <rect x="1233.17" y="1410.55" width="765.96" height="125.62"/>
    </g>
  </g>
</svg>