<svg width="95" height="95" viewBox="0 0 95 95" fill="none" xmlns="http://www.w3.org/2000/svg">
<path d="M47.5 0C73.7335 0 95 21.2665 95 47.5C95 73.7335 73.7335 95 47.5 95C21.2665 95 0 73.7335 0 47.5C0 21.2665 21.2665 0 47.5 0ZM70.3828 20.9863C69.5703 21.0215 68.813 21.2542 68.1465 21.5186C67.5217 21.7652 65.1365 22.769 61.3799 24.3496C57.6194 25.9318 52.6397 28.0285 47.3281 30.2695C36.705 34.7516 24.7619 39.7976 18.6445 42.3799C18.4143 42.477 17.6115 42.7285 16.7598 43.3809C15.908 44.0334 15.0021 45.3853 15.002 46.8916C15.002 48.1063 15.5923 49.3136 16.335 50.0342C17.0777 50.7548 17.8639 51.1114 18.5371 51.3809C20.9798 52.3588 28.5557 55.4004 29.9863 55.9746C30.49 57.4885 33.2323 65.7175 33.8682 67.7344C34.2873 69.0652 34.6857 69.899 35.2051 70.5605C35.4648 70.8912 35.7671 71.1811 36.1328 71.4082C36.279 71.499 36.4396 71.5694 36.6016 71.6338L36.6113 71.6387C36.6486 71.6534 36.681 71.6784 36.7188 71.6914C36.7901 71.7159 36.8382 71.7189 36.9336 71.7393C37.3143 71.8599 37.699 71.9355 38.042 71.9355C39.5048 71.9356 40.4004 71.1445 40.4004 71.1445L40.4541 71.1064L47.9775 64.7217L57.1025 73.1904C57.231 73.3687 58.4297 74.9814 61.0723 74.9814C62.6413 74.9814 63.8864 74.2094 64.6855 73.3867C65.4845 72.5642 65.9817 71.6998 66.1934 70.6133V70.6084C66.3911 69.5826 74.7856 27.305 74.8018 27.2236L74.7871 27.2812C75.0333 26.1789 75.0977 25.1518 74.8262 24.1387C74.5545 23.1255 73.8386 22.1548 72.9512 21.6328C72.0638 21.1109 71.1954 20.9512 70.3828 20.9863ZM69.9141 26.1123C69.9022 26.1835 69.9229 26.1478 69.9043 26.2314L69.8994 26.2607L69.8945 26.2891C69.8945 26.2891 61.5895 68.1043 61.2822 69.6982C61.3046 69.5782 61.2019 69.8173 61.0967 69.9619C60.9478 69.8612 60.6426 69.7314 60.6426 69.7314L60.5938 69.6787L48.1289 58.1104L39.3164 65.584L41.9385 55.2842C42.015 55.2065 58.3287 38.638 59.3145 37.6709C60.1094 36.8959 60.2764 36.6257 60.2764 36.3584C60.2764 36.0003 60.0861 35.7402 59.6611 35.7402C59.2787 35.7403 58.7642 36.1057 58.4893 36.2773C54.9062 38.5182 39.1797 47.5113 32.1299 51.5342C31.0095 51.0843 23.2259 47.9577 20.5879 46.9014C20.6076 46.8929 20.6014 46.8965 20.6221 46.8877C26.741 44.3048 38.6791 39.2588 49.3008 34.7773C54.6116 32.5366 59.5951 30.4374 63.3525 28.8564C67.0513 27.3002 69.6217 26.2295 69.9141 26.1123Z" fill="white"/>
</svg>
