<svg width="95" height="95" viewBox="0 0 95 95" fill="none" xmlns="http://www.w3.org/2000/svg">
<mask id="mask0_257_483" style="mask-type:alpha" maskUnits="userSpaceOnUse" x="0" y="0" width="95" height="95">
<circle cx="47.5" cy="47.5" r="47.5" fill="#D9D9D9"/>
</mask>
<g mask="url(#mask0_257_483)">
<path d="M88.5455 -1H3.45455C-1.76909 -1 -6 3.23091 -6 8.45455V93.5455C-6 98.7691 -1.76909 103 3.45455 103H88.5455C93.7691 103 98 98.7691 98 93.5455V8.45455C98 3.23091 93.7691 -1 88.5455 -1ZM76.0702 69.7531L67.2396 69.876C67.2396 69.876 65.3345 70.2495 62.8433 68.5287C59.5389 66.2596 56.4236 60.3553 53.9938 61.1211C51.5309 61.9058 51.6066 67.2193 51.6066 67.2193C51.6066 67.2193 51.6255 68.1553 51.0629 68.7651C50.4531 69.4222 49.2571 69.356 49.2571 69.356H45.3004C45.3004 69.356 36.5738 70.0793 28.8825 62.0618C20.5058 53.3211 13.1029 36.0713 13.1029 36.0713C13.1029 36.0713 12.668 34.984 13.1313 34.4262C13.656 33.8116 15.0695 33.7927 15.0695 33.7927L24.524 33.7455C24.524 33.7455 25.4127 33.9015 26.0556 34.3742C26.5804 34.7618 26.8782 35.4898 26.8782 35.4898C26.8782 35.4898 28.4051 39.3615 30.4331 42.8691C34.3851 49.7047 36.2193 51.2033 37.5618 50.4705C39.5189 49.4022 38.9327 40.808 38.9327 40.808C38.9327 40.808 38.9705 37.688 37.9495 36.2982C37.1553 35.2156 35.6615 34.8942 35.0091 34.8138C34.4749 34.7429 35.3447 33.5044 36.4793 32.9465C38.1811 32.1145 41.1876 32.0673 44.7378 32.1004C47.5033 32.1287 48.3022 32.2989 49.38 32.5636C52.6418 33.3531 51.5356 36.3975 51.5356 43.7011C51.5356 46.0411 51.1149 49.3313 52.7978 50.4138C53.5258 50.8818 55.2985 50.4847 59.7186 42.9495C61.8222 39.3756 63.3964 35.1778 63.3964 35.1778C63.3964 35.1778 63.7415 34.4309 64.2756 34.1095C64.824 33.7785 65.5615 33.8825 65.5615 33.8825L75.5124 33.8211C75.5124 33.8211 78.5 33.4618 78.9869 34.8185C79.4975 36.2367 77.8713 39.5505 73.8058 44.9727C67.1309 53.8789 66.3887 53.0516 71.9338 58.2044C77.2284 63.1255 78.3204 65.5175 78.5047 65.82C80.6935 69.4647 76.0702 69.7531 76.0702 69.7531Z" fill="white"/>
</g>
</svg>
