<svg width="63" height="64" viewBox="0 0 63 64" fill="none" xmlns="http://www.w3.org/2000/svg">
<path d="M13.9736 12C15.1736 12.4 32.807 12.1667 41.4736 12M6.97377 61.5C10.9738 59 16.5736 49.0001 6.97377 29C2.17385 19 2.47365 9.5 6.97377 2H61.4736C57.307 2 50.5736 7.4 56.9736 29C63.3736 50.6 59.6403 59.6667 56.9736 61.5H6.97377Z" stroke="black" stroke-width="4"/>
<path d="M26.4736 18.5H37.4736" stroke="black" stroke-width="4"/>
<path d="M15.9736 29C18.3736 29.4 37.6403 29.1667 46.9736 29" stroke="black" stroke-width="4"/>
<path d="M43.0112 40.6909L37.0112 53.6909" stroke="black" stroke-width="4"/>
<path d="M41.0111 45.191C39.5111 46.0244 36.6111 46.791 37.0111 43.191C37.5111 38.691 44.5112 35.191 43.0112 41.191" stroke="black" stroke-width="4"/>
<path d="M41.0112 45.1908C41.5112 47.1908 43.1112 50.3908 45.5112 47.1908C48.5112 43.1908 50.5112 36.1908 43.0112 40.6908" stroke="black" stroke-width="4"/>
</svg>
